<?xml version="1.0" encoding="utf-8"?>
<!-- Generator: Adobe Illustrator 25.4.1, SVG Export Plug-In . SVG Version: 6.00 Build 0)  -->
<svg version="1.1" id="Capa_1" xmlns="http://www.w3.org/2000/svg" xmlns:xlink="http://www.w3.org/1999/xlink" x="0px" y="0px"
	 viewBox="0 0 140 30" style="enable-background:new 0 0 140 30;" xml:space="preserve">
<style type="text/css">
	.st0{fill:#FFFFFF;}
	.st1{fill:#FFAC14;}
</style>
<path class="st0" d="M8.8,15.2H5.3V23H0.9V1.7h7.9c2.5,0,4.5,0.6,5.8,1.7c1.4,1.1,2.1,2.7,2.1,4.8c0,1.5-0.3,2.7-1,3.6
	c-0.6,1-1.6,1.7-2.9,2.3l4.6,8.7V23h-4.7L8.8,15.2z M5.3,11.6h3.5c1.1,0,2-0.3,2.6-0.8c0.6-0.6,0.9-1.3,0.9-2.3c0-1-0.3-1.8-0.9-2.4
	C10.9,5.5,10,5.2,8.8,5.2H5.3V11.6z"/>
<path class="st0" d="M27.1,23.3c-2.3,0-4.2-0.7-5.7-2.1c-1.5-1.4-2.2-3.3-2.2-5.7V15c0-1.6,0.3-3,0.9-4.3c0.6-1.3,1.5-2.2,2.6-2.9
	c1.1-0.7,2.4-1,3.9-1c2.2,0,3.9,0.7,5.1,2.1c1.3,1.4,1.9,3.3,1.9,5.8v1.7H23.5c0.1,1,0.5,1.9,1.2,2.5c0.7,0.6,1.6,0.9,2.6,0.9
	c1.6,0,2.9-0.6,3.8-1.8l2.1,2.3c-0.6,0.9-1.5,1.6-2.6,2.1C29.6,23,28.4,23.3,27.1,23.3z M26.6,10.3c-0.8,0-1.5,0.3-2.1,0.8
	c-0.5,0.6-0.8,1.4-1,2.4h5.9v-0.3c0-0.9-0.3-1.7-0.8-2.2C28.2,10.5,27.5,10.3,26.6,10.3z"/>
<path class="st0" d="M35.4,15c0-2.4,0.6-4.4,1.7-5.9c1.2-1.5,2.7-2.2,4.7-2.2c1.7,0,3.1,0.6,4.1,1.8l0.2-1.5h3.8v15.3
	c0,1.4-0.3,2.6-1,3.6c-0.6,1-1.5,1.8-2.7,2.3c-1.1,0.5-2.5,0.8-4,0.8c-1.2,0-2.3-0.2-3.4-0.7c-1.1-0.5-1.9-1.1-2.5-1.8l1.9-2.6
	c1.1,1.2,2.3,1.8,3.8,1.8c1.1,0,2-0.3,2.6-0.9c0.6-0.6,0.9-1.4,0.9-2.5v-0.8c-1,1.1-2.3,1.7-3.9,1.7c-1.9,0-3.4-0.7-4.6-2.2
	c-1.2-1.5-1.8-3.5-1.8-5.9V15z M39.6,15.3c0,1.4,0.3,2.6,0.9,3.4c0.6,0.8,1.4,1.2,2.4,1.2c1.3,0,2.2-0.5,2.8-1.5v-6.7
	c-0.6-1-1.5-1.5-2.7-1.5c-1,0-1.8,0.4-2.4,1.2C39.9,12.4,39.6,13.6,39.6,15.3z"/>
<path class="st0" d="M57.6,23h-4.2V7.2h4.2V23z M53.1,3c0-0.6,0.2-1.2,0.6-1.6c0.4-0.4,1-0.6,1.7-0.6c0.7,0,1.3,0.2,1.7,0.6
	c0.4,0.4,0.6,0.9,0.6,1.6c0,0.6-0.2,1.2-0.7,1.6c-0.4,0.4-1,0.6-1.7,0.6c-0.7,0-1.3-0.2-1.7-0.6C53.3,4.2,53.1,3.7,53.1,3z"/>
<path class="st0" d="M69.7,18.6c0-0.5-0.3-0.9-0.8-1.2c-0.5-0.3-1.3-0.6-2.5-0.8c-3.8-0.8-5.7-2.4-5.7-4.8c0-1.4,0.6-2.6,1.7-3.5
	c1.2-0.9,2.7-1.4,4.6-1.4c2,0,3.6,0.5,4.8,1.4c1.2,0.9,1.8,2.2,1.8,3.7h-4.2c0-0.6-0.2-1.1-0.6-1.5c-0.4-0.4-1-0.6-1.8-0.6
	c-0.7,0-1.3,0.2-1.7,0.5c-0.4,0.3-0.6,0.7-0.6,1.2c0,0.5,0.2,0.8,0.7,1.1c0.4,0.3,1.2,0.5,2.3,0.7c1.1,0.2,1.9,0.4,2.7,0.7
	c2.2,0.8,3.4,2.2,3.4,4.3c0,1.4-0.6,2.6-1.9,3.5c-1.2,0.9-2.8,1.3-4.8,1.3c-1.3,0-2.5-0.2-3.5-0.7c-1-0.5-1.8-1.1-2.4-1.9
	c-0.6-0.8-0.9-1.7-0.9-2.7h4c0,0.8,0.3,1.3,0.8,1.7c0.5,0.4,1.2,0.6,2.1,0.6c0.8,0,1.4-0.2,1.8-0.5C69.5,19.5,69.7,19.1,69.7,18.6z"
	/>
<path class="st0" d="M81.6,3.3v3.9h2.7v3.1h-2.7v7.9c0,0.6,0.1,1,0.3,1.3c0.2,0.3,0.7,0.4,1.3,0.4c0.5,0,0.9,0,1.2-0.1v3.2
	c-0.8,0.3-1.7,0.4-2.6,0.4c-3,0-4.5-1.5-4.5-4.5v-8.5h-2.3V7.2h2.3V3.3H81.6z"/>
<path class="st0" d="M95.6,11.1C95,11,94.5,11,94.1,11c-1.6,0-2.7,0.5-3.1,1.6V23h-4.2V7.2h4L90.8,9c0.8-1.5,2-2.2,3.5-2.2
	c0.5,0,0.9,0.1,1.3,0.2L95.6,11.1z"/>
<path class="st1" d="M106.6,22.7l-0.7-4.2l-4.5,0.2l-1.1,5.6L96.1,24l5.4-21.8l5.6,0.5l3.9,20.3L106.6,22.7z M104,6.2l-1.9,9.3
	l3.4-0.1L104,6.2z"/>
<path class="st1" d="M113.6,23.5c-0.1-2.3-0.1-5-0.1-8.1c0-3.2,0.1-7.4,0.3-12.7c1.7-0.6,3.4-0.9,5.2-0.9c1.8,0,3.4,0.7,4.7,2
	c1.4,1.3,2.1,2.9,2.1,4.9c0,2-0.8,3.7-2.3,5.2c-1.5,1.4-3.5,2.5-5.9,3.2c0,2.2,0,4.5,0.1,6.9L113.6,23.5z M120.5,11.7
	c0.7-0.9,1.1-1.8,1.1-2.9s-0.3-1.9-0.8-2.6c-0.5-0.7-1.2-1-1.8-1c-0.2,0-0.6,0.1-1.2,0.2c-0.1,2.8-0.2,5.5-0.2,8.2
	C118.8,13.2,119.8,12.6,120.5,11.7z"/>
<path class="st1" d="M127.5,23.5c-0.1-2.3-0.1-5-0.1-8.1c0-3.2,0.1-7.4,0.3-12.7c1.7-0.6,3.4-0.9,5.2-0.9c1.8,0,3.4,0.7,4.7,2
	c1.4,1.3,2.1,2.9,2.1,4.9c0,2-0.8,3.7-2.3,5.2c-1.5,1.4-3.5,2.5-5.9,3.2c0,2.2,0,4.5,0.1,6.9L127.5,23.5z M134.5,11.7
	c0.7-0.9,1.1-1.8,1.1-2.9s-0.3-1.9-0.8-2.6c-0.5-0.7-1.1-1-1.8-1c-0.2,0-0.6,0.1-1.2,0.2c-0.1,2.8-0.2,5.5-0.2,8.2
	C132.8,13.2,133.8,12.6,134.5,11.7z"/>
</svg>
